<?xml version="1.0" encoding="UTF-8"?>
<svg version="1.1" viewBox="0 0 793.71 1122.5" xml:space="preserve" xmlns="http://www.w3.org/2000/svg"><g transform="matrix(1.3333 0 0 -1.3333 147.33 267)"><path d="m0 0h7.97v7.97h-7.97z" fill="#66f"/></g><g transform="matrix(1.3333 0 0 -1.3333 168.58 267)"><path d="m0 0h7.97v7.97h-7.97z" fill="#fff101"/></g><g transform="matrix(1.3333 0 0 -1.3333 189.83 277.63)"><path d="m0 0h7.97v7.97h-7.97z" fill="#f00"/></g><g transform="matrix(1.3333 0 0 -1.3333 211.09 267)"><path d="m0 0h7.97v7.97h-7.97z" fill="#ed028c"/></g><g transform="matrix(1.3333 0 0 -1.3333 232.34 267)"><path d="m0 0h7.97v7.97h-7.97z" fill="#0f0"/></g><g transform="matrix(1.3333 0 0 -1.3333 253.59 267)"><path d="m0 0h7.97v7.97h-7.97z" fill="#0ff"/></g><g transform="matrix(1.3333 0 0 -1.3333 274.84 267)"><path d="m0 0h7.97v7.97h-7.97z" fill="#fff101"/></g><g transform="matrix(1.3333 0 0 -1.3333 -200 1122.5)"><text transform="matrix(1,0,0,-1,264.98,584.37)" fill="#0080ff" font-family="CMSY10" font-size="9.9626px"><tspan x="0" y="0">•</tspan></text>


</g><g transform="matrix(1.3333 0 0 -1.3333 -200 1122.5)"><text transform="matrix(1,0,0,-1,279.92,584.37)" fill="#ff00ff" font-family="CMSY10" font-size="9.9626px"><tspan x="0" y="0">•</tspan></text>


</g><g transform="matrix(1.3333 0 0 -1.3333 -200 1122.5)"><text transform="matrix(1,0,0,-1,294.87,584.37)" fill="#d5d500" font-family="CMSY10" font-size="9.9626px"><tspan x="0" y="0">•</tspan></text>


</g><g transform="matrix(1.3333 0 0 -1.3333 -200 1122.5)"><text transform="matrix(1,0,0,-1,309.81,584.37)" fill="#8000ff" font-family="CMSY10" font-size="9.9626px"><tspan x="0" y="0">•</tspan></text>


</g><g transform="matrix(1.3333 0 0 -1.3333 -200 1122.5)"><text transform="matrix(1,0,0,-1,324.76,584.37)" fill="#d5d500" font-family="CMSY10" font-size="9.9626px"><tspan x="0" y="0">•</tspan></text>


</g><g transform="matrix(1.3333 0 0 -1.3333 -200 1122.5)"><text transform="matrix(1,0,0,-1,339.7,584.37)" fill="#ff0000" font-family="CMSY10" font-size="9.9626px"><tspan x="0" y="0">•</tspan></text>


</g><g transform="matrix(1.3333 0 0 -1.3333 -200 1122.5)"><text transform="matrix(1,0,0,-1,354.64,584.37)" fill="#00ff00" font-family="CMSY10" font-size="9.9626px"><tspan x="0" y="0">•</tspan></text>


</g><g transform="matrix(1.3333 0 0 -1.3333 -200 1122.5)"><text transform="matrix(1,0,0,-1,287.4,564.37)" fill="#ff00ff" font-family="CMSY10" font-size="9.9626px"><tspan x="0" y="0">•</tspan></text>


</g><g transform="matrix(1.3333 0 0 -1.3333 -200 1122.5)"><text transform="matrix(1,0,0,-1,302.34,564.37)" fill="#d5d500" font-family="CMSY10" font-size="9.9626px"><tspan x="0" y="0">•</tspan></text>


</g><g transform="matrix(1.3333 0 0 -1.3333 -200 1122.5)"><text transform="matrix(1,0,0,-1,317.28,564.37)" fill="#ff0000" font-family="CMSY10" font-size="9.9626px"><tspan x="0" y="0">•</tspan></text>


</g><g transform="matrix(1.3333 0 0 -1.3333 -200 1122.5)"><text transform="matrix(1,0,0,-1,332.23,564.37)" fill="#00ff00" font-family="CMSY10" font-size="9.9626px"><tspan x="0" y="0">•</tspan></text>


</g><g transform="matrix(1.3333 0 0 -1.3333 -200 1122.5)"><text transform="matrix(1,0,0,-1,294.87,539.37)" fill="#ff0000" font-family="CMSY10" font-size="9.9626px"><tspan x="0" y="0">•</tspan></text>


</g><g transform="matrix(1.3333 0 0 -1.3333 -200 1122.5)"><text transform="matrix(1,0,0,-1,309.81,539.37)" fill="#d5d500" font-family="CMSY10" font-size="9.9626px"><tspan x="0" y="0">•</tspan></text>


</g><g transform="matrix(1.3333 0 0 -1.3333 -200 1122.5)"><text transform="matrix(1,0,0,-1,324.76,539.37)" fill="#ff00ff" font-family="CMSY10" font-size="9.9626px"><tspan x="0" y="0">•</tspan></text>


</g><g transform="matrix(1.3333 0 0 -1.3333 -200 1122.5)"><text transform="matrix(1,0,0,-1,272.45,519.37)" fill="#ff0000" font-family="CMSY10" font-size="9.9626px"><tspan x="0" y="0">•</tspan></text>


</g><g transform="matrix(1.3333 0 0 -1.3333 -200 1122.5)"><text transform="matrix(1,0,0,-1,287.4,519.37)" fill="#00ff00" font-family="CMSY10" font-size="9.9626px"><tspan x="0" y="0">•</tspan></text>


</g><g transform="matrix(1.3333 0 0 -1.3333 -200 1122.5)"><text transform="matrix(1,0,0,-1,302.34,519.37)" fill="#ff8000" font-family="CMSY10" font-size="9.9626px"><tspan x="0" y="0">•</tspan></text>


</g><g transform="matrix(1.3333 0 0 -1.3333 -200 1122.5)"><text transform="matrix(1,0,0,-1,317.28,519.37)" fill="#d5d500" font-family="CMSY10" font-size="9.9626px"><tspan x="0" y="0">•</tspan></text>


</g><g transform="matrix(1.3333 0 0 -1.3333 -200 1122.5)"><text transform="matrix(1,0,0,-1,332.23,519.37)" fill="#ff00ff" font-family="CMSY10" font-size="9.9626px"><tspan x="0" y="0">•</tspan></text>


</g><g transform="matrix(1.3333 0 0 -1.3333 -200 1122.5)"><text transform="matrix(1,0,0,-1,347.17,519.37)" fill="#0080ff" font-family="CMSY10" font-size="9.9626px"><tspan x="0" y="0">•</tspan></text>


</g><g transform="matrix(1.3333 0 0 -1.3333 -200 1122.5)"><text transform="matrix(1,0,0,-1,264.98,499.37)" fill="#00ff00" font-family="CMSY10" font-size="9.9626px"><tspan x="0" y="0">•</tspan></text>


</g><g transform="matrix(1.3333 0 0 -1.3333 -200 1122.5)"><text transform="matrix(1,0,0,-1,279.92,499.37)" fill="#00ffff" font-family="CMSY10" font-size="9.9626px"><tspan x="0" y="0">•</tspan></text>


</g><g transform="matrix(1.3333 0 0 -1.3333 -200 1122.5)"><text transform="matrix(1,0,0,-1,294.87,499.37)" fill="#ff00ff" font-family="CMSY10" font-size="9.9626px"><tspan x="0" y="0">•</tspan></text>


</g><g transform="matrix(1.3333 0 0 -1.3333 -200 1122.5)"><text transform="matrix(1,0,0,-1,309.81,499.37)" fill="#d5d500" font-family="CMSY10" font-size="9.9626px"><tspan x="0" y="0">•</tspan></text>


</g><g transform="matrix(1.3333 0 0 -1.3333 -200 1122.5)"><text transform="matrix(1,0,0,-1,324.76,499.37)" fill="#ff0000" font-family="CMSY10" font-size="9.9626px"><tspan x="0" y="0">•</tspan></text>


</g><g transform="matrix(1.3333 0 0 -1.3333 -200 1122.5)"><text transform="matrix(1,0,0,-1,339.7,499.37)" fill="#d5d500" font-family="CMSY10" font-size="9.9626px"><tspan x="0" y="0">•</tspan></text>


</g><g transform="matrix(1.3333 0 0 -1.3333 -200 1122.5)"><text transform="matrix(1,0,0,-1,354.64,499.37)" fill="#8000ff" font-family="CMSY10" font-size="9.9626px"><tspan x="0" y="0">•</tspan></text>


</g><g transform="matrix(1.3333 0 0 -1.3333 -200 1122.5)"><text transform="matrix(1,0,0,-1,272.45,479.37)" fill="#ff00ff" font-family="CMSY10" font-size="9.9626px"><tspan x="0" y="0">•</tspan></text>


</g><g transform="matrix(1.3333 0 0 -1.3333 -200 1122.5)"><text transform="matrix(1,0,0,-1,287.4,479.37)" fill="#d5d500" font-family="CMSY10" font-size="9.9626px"><tspan x="0" y="0">•</tspan></text>


</g><g transform="matrix(1.3333 0 0 -1.3333 -200 1122.5)"><text transform="matrix(1,0,0,-1,302.34,479.37)" fill="#ff0000" font-family="CMSY10" font-size="9.9626px"><tspan x="0" y="0">•</tspan></text>


</g><g transform="matrix(1.3333 0 0 -1.3333 -200 1122.5)"><text transform="matrix(1,0,0,-1,317.28,479.37)" fill="#00ff00" font-family="CMSY10" font-size="9.9626px"><tspan x="0" y="0">•</tspan></text>


</g><g transform="matrix(1.3333 0 0 -1.3333 -200 1122.5)"><text transform="matrix(1,0,0,-1,332.23,479.37)" fill="#ff8000" font-family="CMSY10" font-size="9.9626px"><tspan x="0" y="0">•</tspan></text>


</g><g transform="matrix(1.3333 0 0 -1.3333 -200 1122.5)"><text transform="matrix(1,0,0,-1,347.17,479.37)" fill="#d5d500" font-family="CMSY10" font-size="9.9626px"><tspan x="0" y="0">•</tspan></text>


</g><g transform="matrix(1.3333 0 0 -1.3333 -200 1122.5)"><text transform="matrix(1,0,0,-1,264.98,459.37)" fill="#0080ff" font-family="CMSY10" font-size="9.9626px"><tspan x="0" y="0">•</tspan></text>


</g><g transform="matrix(1.3333 0 0 -1.3333 -200 1122.5)"><text transform="matrix(1,0,0,-1,279.92,459.37)" fill="#ff00ff" font-family="CMSY10" font-size="9.9626px"><tspan x="0" y="0">•</tspan></text>


</g><g transform="matrix(1.3333 0 0 -1.3333 -200 1122.5)"><text transform="matrix(1,0,0,-1,294.87,459.37)" fill="#d5d500" font-family="CMSY10" font-size="9.9626px"><tspan x="0" y="0">•</tspan></text>


</g><g transform="matrix(1.3333 0 0 -1.3333 -200 1122.5)"><text transform="matrix(1,0,0,-1,309.81,459.37)" fill="#8000ff" font-family="CMSY10" font-size="9.9626px"><tspan x="0" y="0">•</tspan></text>


</g><g transform="matrix(1.3333 0 0 -1.3333 -200 1122.5)"><text transform="matrix(1,0,0,-1,324.76,459.37)" fill="#d5d500" font-family="CMSY10" font-size="9.9626px"><tspan x="0" y="0">•</tspan></text>


</g><g transform="matrix(1.3333 0 0 -1.3333 -200 1122.5)"><text transform="matrix(1,0,0,-1,339.7,459.37)" fill="#ff0000" font-family="CMSY10" font-size="9.9626px"><tspan x="0" y="0">•</tspan></text>


</g><g transform="matrix(1.3333 0 0 -1.3333 -200 1122.5)"><text transform="matrix(1,0,0,-1,354.64,459.37)" fill="#00ff00" font-family="CMSY10" font-size="9.9626px"><tspan x="0" y="0">•</tspan></text>


</g><g transform="matrix(1.3333 0 0 -1.3333 -200 1122.5)"><text transform="matrix(1,0,0,-1,279.92,439.37)" fill="#ff8000" font-family="CMSY10" font-size="9.9626px"><tspan x="0" y="0">•</tspan></text>


</g><g transform="matrix(1.3333 0 0 -1.3333 -200 1122.5)"><text transform="matrix(1,0,0,-1,294.87,439.37)" fill="#d5d500" font-family="CMSY10" font-size="9.9626px"><tspan x="0" y="0">•</tspan></text>


</g><g transform="matrix(1.3333 0 0 -1.3333 -200 1122.5)"><text transform="matrix(1,0,0,-1,309.81,439.37)" fill="#ff00ff" font-family="CMSY10" font-size="9.9626px"><tspan x="0" y="0">•</tspan></text>


</g><g transform="matrix(1.3333 0 0 -1.3333 -200 1122.5)"><text transform="matrix(1,0,0,-1,324.76,439.37)" fill="#d5d500" font-family="CMSY10" font-size="9.9626px"><tspan x="0" y="0">•</tspan></text>


</g><g transform="matrix(1.3333 0 0 -1.3333 -200 1122.5)"><text transform="matrix(1,0,0,-1,339.7,439.37)" fill="#ff0000" font-family="CMSY10" font-size="9.9626px"><tspan x="0" y="0">•</tspan></text>


</g><g transform="matrix(1.3333 0 0 -1.3333 -200 1122.5)"><text transform="matrix(1,0,0,-1,272.45,419.37)" fill="#00ff00" font-family="CMSY10" font-size="9.9626px"><tspan x="0" y="0">•</tspan></text>


</g><g transform="matrix(1.3333 0 0 -1.3333 -200 1122.5)"><text transform="matrix(1,0,0,-1,287.4,419.37)" fill="#8000ff" font-family="CMSY10" font-size="9.9626px"><tspan x="0" y="0">•</tspan></text>


</g><g transform="matrix(1.3333 0 0 -1.3333 -200 1122.5)"><text transform="matrix(1,0,0,-1,302.34,419.37)" fill="#d5d500" font-family="CMSY10" font-size="9.9626px"><tspan x="0" y="0">•</tspan></text>


</g><g transform="matrix(1.3333 0 0 -1.3333 -200 1122.5)"><text transform="matrix(1,0,0,-1,317.28,419.37)" fill="#ff0000" font-family="CMSY10" font-size="9.9626px"><tspan x="0" y="0">•</tspan></text>


</g><g transform="matrix(1.3333 0 0 -1.3333 -200 1122.5)"><text transform="matrix(1,0,0,-1,332.23,419.37)" fill="#d5d500" font-family="CMSY10" font-size="9.9626px"><tspan x="0" y="0">•</tspan></text>


</g><g transform="matrix(1.3333 0 0 -1.3333 -200 1122.5)"><text transform="matrix(1,0,0,-1,347.17,419.37)" fill="#ff00ff" font-family="CMSY10" font-size="9.9626px"><tspan x="0" y="0">•</tspan></text>


</g><g transform="matrix(1.3333 0 0 -1.3333 -200 1122.5)"><text transform="matrix(1,0,0,-1,225.74,639.66)" fill="#000000" font-family="Helvetica" font-size="12px"><tspan x="0" y="0">3</tspan><tspan x="0" y="20.4566"> </tspan><tspan x="0" y="61.3699">4</tspan><tspan x="0" y="81.8265">5</tspan><tspan x="0" y="102.2832">6</tspan><tspan x="0" y="122.7399">7</tspan><tspan x="0" y="143.1965">8</tspan><tspan x="0" y="163.65311">9</tspan><tspan x="0 6.6719999" y="184.1098">10</tspan><tspan x="0 6.6719999" y="204.56641">11</tspan><tspan x="0 6.6719999" y="225.0231">12</tspan></text>


</g><g transform="matrix(1.3333 0 0 -1.3333 -163.6 1126)"><text transform="matrix(1,0,0,-1,173.12,667.69)" fill="#000000" font-family="Helvetica" font-size="12px"><tspan x="0 6.6719999 13.344 20.016001 22.68 29.351999" y="0">pagina</tspan></text>


</g><g transform="matrix(1.3333 0 0 -1.3333 -40.778 1125.2)"><g transform="translate(38.329,-1.845)"><text transform="matrix(1,0,0,-1,264.98,584.37)" fill="#0080ff" font-family="CMSY10" font-size="9.9626px"><tspan x="0" y="0">•</tspan></text>


</g><g transform="translate(38.329,-1.845)"><text transform="matrix(1,0,0,-1,279.92,584.37)" fill="#ff00ff" font-family="CMSY10" font-size="9.9626px"><tspan x="0" y="0">•</tspan></text>


</g><g transform="translate(38.329,-1.845)"><text transform="matrix(1,0,0,-1,294.87,584.37)" fill="#d5d500" font-family="CMSY10" font-size="9.9626px"><tspan x="0" y="0">•</tspan></text>


</g><g transform="translate(38.329,-1.845)"><text transform="matrix(1,0,0,-1,309.81,584.37)" fill="#8000ff" font-family="CMSY10" font-size="9.9626px"><tspan x="0" y="0">•</tspan></text>


</g><g transform="translate(38.329,-1.845)"><text transform="matrix(1,0,0,-1,324.76,584.37)" fill="#d5d500" font-family="CMSY10" font-size="9.9626px"><tspan x="0" y="0">•</tspan></text>


</g><g transform="translate(38.329,-1.845)"><text transform="matrix(1,0,0,-1,339.7,584.37)" fill="#ff0000" font-family="CMSY10" font-size="9.9626px"><tspan x="0" y="0">•</tspan></text>


</g><g transform="translate(38.329,-1.845)"><text transform="matrix(1,0,0,-1,354.64,584.37)" fill="#00ff00" font-family="CMSY10" font-size="9.9626px"><tspan x="0" y="0">•</tspan></text>


</g></g><g transform="matrix(1.3333 0 0 -1.3333 -70.666 1125.2)"><g transform="translate(38.329,-1.845)"><text transform="matrix(1,0,0,-1,287.4,564.37)" fill="#ff00ff" font-family="CMSY10" font-size="9.9626px"><tspan x="0" y="0">•</tspan></text>


</g><g transform="translate(38.329,-1.845)"><text transform="matrix(1,0,0,-1,302.34,564.37)" fill="#d5d500" font-family="CMSY10" font-size="9.9626px"><tspan x="0" y="0">•</tspan></text>


</g><g transform="translate(38.329,-1.845)"><text transform="matrix(1,0,0,-1,317.28,564.37)" fill="#ff0000" font-family="CMSY10" font-size="9.9626px"><tspan x="0" y="0">•</tspan></text>


</g><g transform="translate(38.329,-1.845)"><text transform="matrix(1,0,0,-1,332.23,564.37)" fill="#00ff00" font-family="CMSY10" font-size="9.9626px"><tspan x="0" y="0">•</tspan></text>


</g></g><g transform="matrix(1.3333 0 0 -1.3333 -80.627 1125.2)"><g transform="translate(38.329,-1.845)"><text transform="matrix(1,0,0,-1,294.87,539.37)" fill="#ff0000" font-family="CMSY10" font-size="9.9626px"><tspan x="0" y="0">•</tspan></text>


</g><g transform="translate(38.329,-1.845)"><text transform="matrix(1,0,0,-1,309.81,539.37)" fill="#d5d500" font-family="CMSY10" font-size="9.9626px"><tspan x="0" y="0">•</tspan></text>


</g><g transform="translate(38.329,-1.845)"><text transform="matrix(1,0,0,-1,324.76,539.37)" fill="#ff00ff" font-family="CMSY10" font-size="9.9626px"><tspan x="0" y="0">•</tspan></text>


</g></g><g transform="matrix(1.3333 0 0 -1.3333 -50.741 1125.2)"><g transform="translate(38.329,-1.845)"><text transform="matrix(1,0,0,-1,272.45,519.37)" fill="#ff0000" font-family="CMSY10" font-size="9.9626px"><tspan x="0" y="0">•</tspan></text>


</g><g transform="translate(38.329,-1.845)"><text transform="matrix(1,0,0,-1,287.4,519.37)" fill="#00ff00" font-family="CMSY10" font-size="9.9626px"><tspan x="0" y="0">•</tspan></text>


</g><g transform="translate(38.329,-1.845)"><text transform="matrix(1,0,0,-1,302.34,519.37)" fill="#ff8000" font-family="CMSY10" font-size="9.9626px"><tspan x="0" y="0">•</tspan></text>


</g><g transform="translate(38.329,-1.845)"><text transform="matrix(1,0,0,-1,317.28,519.37)" fill="#d5d500" font-family="CMSY10" font-size="9.9626px"><tspan x="0" y="0">•</tspan></text>


</g><g transform="translate(38.329,-1.845)"><text transform="matrix(1,0,0,-1,332.23,519.37)" fill="#ff00ff" font-family="CMSY10" font-size="9.9626px"><tspan x="0" y="0">•</tspan></text>


</g><g transform="translate(38.329,-1.845)"><text transform="matrix(1,0,0,-1,347.17,519.37)" fill="#0080ff" font-family="CMSY10" font-size="9.9626px"><tspan x="0" y="0">•</tspan></text>


</g></g><g transform="matrix(1.3333 0 0 -1.3333 -40.778 1125.2)"><g transform="translate(38.329,-1.845)"><text transform="matrix(1,0,0,-1,264.98,499.37)" fill="#00ff00" font-family="CMSY10" font-size="9.9626px"><tspan x="0" y="0">•</tspan></text>


</g><g transform="translate(38.329,-1.845)"><text transform="matrix(1,0,0,-1,279.92,499.37)" fill="#00ffff" font-family="CMSY10" font-size="9.9626px"><tspan x="0" y="0">•</tspan></text>


</g><g transform="translate(38.329,-1.845)"><text transform="matrix(1,0,0,-1,294.87,499.37)" fill="#ff00ff" font-family="CMSY10" font-size="9.9626px"><tspan x="0" y="0">•</tspan></text>


</g><g transform="translate(38.329,-1.845)"><text transform="matrix(1,0,0,-1,309.81,499.37)" fill="#d5d500" font-family="CMSY10" font-size="9.9626px"><tspan x="0" y="0">•</tspan></text>


</g><g transform="translate(38.329,-1.845)"><text transform="matrix(1,0,0,-1,324.76,499.37)" fill="#ff0000" font-family="CMSY10" font-size="9.9626px"><tspan x="0" y="0">•</tspan></text>


</g><g transform="translate(38.329,-1.845)"><text transform="matrix(1,0,0,-1,339.7,499.37)" fill="#d5d500" font-family="CMSY10" font-size="9.9626px"><tspan x="0" y="0">•</tspan></text>


</g><g transform="translate(38.329,-1.845)"><text transform="matrix(1,0,0,-1,354.64,499.37)" fill="#8000ff" font-family="CMSY10" font-size="9.9626px"><tspan x="0" y="0">•</tspan></text>


</g></g><g transform="matrix(1.3333 0 0 -1.3333 -50.741 1125.2)"><g transform="translate(38.329,-1.845)"><text transform="matrix(1,0,0,-1,272.45,479.37)" fill="#ff00ff" font-family="CMSY10" font-size="9.9626px"><tspan x="0" y="0">•</tspan></text>


</g><g transform="translate(38.329,-1.845)"><text transform="matrix(1,0,0,-1,287.4,479.37)" fill="#d5d500" font-family="CMSY10" font-size="9.9626px"><tspan x="0" y="0">•</tspan></text>


</g><g transform="translate(38.329,-1.845)"><text transform="matrix(1,0,0,-1,302.34,479.37)" fill="#ff0000" font-family="CMSY10" font-size="9.9626px"><tspan x="0" y="0">•</tspan></text>


</g><g transform="translate(38.329,-1.845)"><text transform="matrix(1,0,0,-1,317.28,479.37)" fill="#00ff00" font-family="CMSY10" font-size="9.9626px"><tspan x="0" y="0">•</tspan></text>


</g><g transform="translate(38.329,-1.845)"><text transform="matrix(1,0,0,-1,332.23,479.37)" fill="#ff8000" font-family="CMSY10" font-size="9.9626px"><tspan x="0" y="0">•</tspan></text>


</g><g transform="translate(38.329,-1.845)"><text transform="matrix(1,0,0,-1,347.17,479.37)" fill="#d5d500" font-family="CMSY10" font-size="9.9626px"><tspan x="0" y="0">•</tspan></text>


</g></g><g transform="matrix(1.3333 0 0 -1.3333 -40.778 1125.2)"><g transform="translate(38.329,-1.845)"><text transform="matrix(1,0,0,-1,264.98,459.37)" fill="#0080ff" font-family="CMSY10" font-size="9.9626px"><tspan x="0" y="0">•</tspan></text>


</g><g transform="translate(38.329,-1.845)"><text transform="matrix(1,0,0,-1,279.92,459.37)" fill="#ff00ff" font-family="CMSY10" font-size="9.9626px"><tspan x="0" y="0">•</tspan></text>


</g><g transform="translate(38.329,-1.845)"><text transform="matrix(1,0,0,-1,294.87,459.37)" fill="#d5d500" font-family="CMSY10" font-size="9.9626px"><tspan x="0" y="0">•</tspan></text>


</g><g transform="translate(38.329,-1.845)"><text transform="matrix(1,0,0,-1,309.81,459.37)" fill="#8000ff" font-family="CMSY10" font-size="9.9626px"><tspan x="0" y="0">•</tspan></text>


</g><g transform="translate(38.329,-1.845)"><text transform="matrix(1,0,0,-1,324.76,459.37)" fill="#d5d500" font-family="CMSY10" font-size="9.9626px"><tspan x="0" y="0">•</tspan></text>


</g><g transform="translate(38.329,-1.845)"><text transform="matrix(1,0,0,-1,339.7,459.37)" fill="#ff0000" font-family="CMSY10" font-size="9.9626px"><tspan x="0" y="0">•</tspan></text>


</g><g transform="translate(38.329,-1.845)"><text transform="matrix(1,0,0,-1,354.64,459.37)" fill="#00ff00" font-family="CMSY10" font-size="9.9626px"><tspan x="0" y="0">•</tspan></text>


</g></g><g transform="matrix(1.3333 0 0 -1.3333 -60.703 1125.2)"><g transform="translate(38.329,-1.845)"><text transform="matrix(1,0,0,-1,279.92,439.37)" fill="#ff8000" font-family="CMSY10" font-size="9.9626px"><tspan x="0" y="0">•</tspan></text>


</g><g transform="translate(38.329,-1.845)"><text transform="matrix(1,0,0,-1,294.87,439.37)" fill="#d5d500" font-family="CMSY10" font-size="9.9626px"><tspan x="0" y="0">•</tspan></text>


</g><g transform="translate(38.329,-1.845)"><text transform="matrix(1,0,0,-1,309.81,439.37)" fill="#ff00ff" font-family="CMSY10" font-size="9.9626px"><tspan x="0" y="0">•</tspan></text>


</g><g transform="translate(38.329,-1.845)"><text transform="matrix(1,0,0,-1,324.76,439.37)" fill="#d5d500" font-family="CMSY10" font-size="9.9626px"><tspan x="0" y="0">•</tspan></text>


</g><g transform="translate(38.329,-1.845)"><text transform="matrix(1,0,0,-1,339.7,439.37)" fill="#ff0000" font-family="CMSY10" font-size="9.9626px"><tspan x="0" y="0">•</tspan></text>


</g></g><g transform="matrix(1.3333 0 0 -1.3333 -50.741 1125.2)"><g transform="translate(38.329,-1.845)"><text transform="matrix(1,0,0,-1,272.45,419.37)" fill="#00ff00" font-family="CMSY10" font-size="9.9626px"><tspan x="0" y="0">•</tspan></text>


</g><g transform="translate(38.329,-1.845)"><text transform="matrix(1,0,0,-1,287.4,419.37)" fill="#8000ff" font-family="CMSY10" font-size="9.9626px"><tspan x="0" y="0">•</tspan></text>


</g><g transform="translate(38.329,-1.845)"><text transform="matrix(1,0,0,-1,302.34,419.37)" fill="#d5d500" font-family="CMSY10" font-size="9.9626px"><tspan x="0" y="0">•</tspan></text>


</g><g transform="translate(38.329,-1.845)"><text transform="matrix(1,0,0,-1,317.28,419.37)" fill="#ff0000" font-family="CMSY10" font-size="9.9626px"><tspan x="0" y="0">•</tspan></text>


</g><g transform="translate(38.329,-1.845)"><text transform="matrix(1,0,0,-1,332.23,419.37)" fill="#d5d500" font-family="CMSY10" font-size="9.9626px"><tspan x="0" y="0">•</tspan></text>


</g><g transform="translate(38.329,-1.845)"><text transform="matrix(1,0,0,-1,347.17,419.37)" fill="#ff00ff" font-family="CMSY10" font-size="9.9626px"><tspan x="0" y="0">•</tspan></text>


</g></g>

















































<g transform="translate(-60)" font-family="CMSY10" font-size="13.283px" stroke-width="1.3333"><text x="612.45709" y="347.12466" fill="#0080ff"><tspan x="612.45709" y="347.12466" stroke-width="1.3333">•</tspan></text>
<text x="634.45532" y="347.12466" fill="#ff00ff"><tspan x="634.45532" y="347.12466" stroke-width="1.3333">•</tspan></text>
<text x="648.4198" y="347.12466" fill="#d5d500"><tspan x="648.4198" y="347.12466" stroke-width="1.3333">•</tspan></text>
<text x="688.3833" y="347.12466" fill="#8000ff"><tspan x="688.3833" y="347.12466" stroke-width="1.3333">•</tspan></text>
<text x="654.4198" y="347.12466" fill="#d5d500"><tspan x="654.4198" y="347.12466" stroke-width="1.3333">•</tspan></text>
<text x="672.45703" y="347.12466" fill="#ff0000"><tspan x="672.45703" y="347.12466" stroke-width="1.3333">•</tspan></text>
<text x="702.41681" y="347.12466" fill="#00ff00"><tspan x="702.41681" y="347.12466" stroke-width="1.3333">•</tspan></text>
<text x="634.45532" y="373.79068" fill="#ff00ff"><tspan x="634.45532" y="373.79068" stroke-width="1.3333">•</tspan></text>
<text x="650.4198" y="373.79068" fill="#d5d500"><tspan x="650.4198" y="373.79068" stroke-width="1.3333">•</tspan></text>
<text x="672.45703" y="373.79068" fill="#ff0000"><tspan x="672.45703" y="373.79068" stroke-width="1.3333">•</tspan></text>
<text x="702.41681" y="373.79068" fill="#00ff00"><tspan x="702.41681" y="373.79068" stroke-width="1.3333">•</tspan></text>
<text x="672.45703" y="407.12314" fill="#ff0000"><tspan x="672.45703" y="407.12314" stroke-width="1.3333">•</tspan></text>
<text x="650.4198" y="407.12314" fill="#d5d500"><tspan x="650.4198" y="407.12314" stroke-width="1.3333">•</tspan></text>
<text x="634.45532" y="407.12314" fill="#ff00ff"><tspan x="634.45532" y="407.12314" stroke-width="1.3333">•</tspan></text>
<text x="672.45703" y="433.78922" fill="#ff0000"><tspan x="672.45703" y="433.78922" stroke-width="1.3333">•</tspan></text>
<text x="702.41681" y="433.78922" fill="#00ff00"><tspan x="702.41681" y="433.78922" stroke-width="1.3333">•</tspan></text>
<text x="718.49414" y="433.78922" fill="#ff8000"><tspan x="718.49414" y="433.78922" stroke-width="1.3333">•</tspan></text>
<text x="650.4198" y="433.78922" fill="#d5d500"><tspan x="650.4198" y="433.78922" stroke-width="1.3333">•</tspan></text>
<text x="634.45532" y="433.78922" fill="#ff00ff"><tspan x="634.45532" y="433.78922" stroke-width="1.3333">•</tspan></text>
<text x="612.45709" y="433.78922" fill="#0080ff"><tspan x="612.45709" y="433.78922" stroke-width="1.3333">•</tspan></text>
<text x="702.41681" y="460.45517" fill="#00ff00"><tspan x="702.41681" y="460.45517" stroke-width="1.3333">•</tspan></text>
<text x="744.56604" y="460.45517" fill="#00ffff"><tspan x="744.56604" y="460.45517" stroke-width="1.3333">•</tspan></text>
<text x="634.45532" y="460.45517" fill="#ff00ff"><tspan x="634.45532" y="460.45517" stroke-width="1.3333">•</tspan></text>
<text x="648.4198" y="460.45517" fill="#d5d500"><tspan x="648.4198" y="460.45517" stroke-width="1.3333">•</tspan></text>
<text x="672.45703" y="460.45517" fill="#ff0000"><tspan x="672.45703" y="460.45517" stroke-width="1.3333">•</tspan></text>
<text x="654.4198" y="460.45517" fill="#d5d500"><tspan x="654.4198" y="460.45517" stroke-width="1.3333">•</tspan></text>
<text x="688.3833" y="460.45517" fill="#8000ff"><tspan x="688.3833" y="460.45517" stroke-width="1.3333">•</tspan></text>
<text x="634.45532" y="487.12119" fill="#ff00ff"><tspan x="634.45532" y="487.12119" stroke-width="1.3333">•</tspan></text>
<text x="648.4198" y="487.12119" fill="#d5d500"><tspan x="648.4198" y="487.12119" stroke-width="1.3333">•</tspan></text>
<text x="672.45703" y="487.12119" fill="#ff0000"><tspan x="672.45703" y="487.12119" stroke-width="1.3333">•</tspan></text>
<text x="702.41681" y="487.12119" fill="#00ff00"><tspan x="702.41681" y="487.12119" stroke-width="1.3333">•</tspan></text>
<text x="718.49414" y="487.12119" fill="#ff8000"><tspan x="718.49414" y="487.12119" stroke-width="1.3333">•</tspan></text>
<text x="654.4198" y="487.12119" fill="#d5d500"><tspan x="654.4198" y="487.12119" stroke-width="1.3333">•</tspan></text>
<text x="612.45709" y="513.78711" fill="#0080ff"><tspan x="612.45709" y="513.78711" stroke-width="1.3333">•</tspan></text>
<text x="634.45532" y="513.78711" fill="#ff00ff"><tspan x="634.45532" y="513.78711" stroke-width="1.3333">•</tspan></text>
<text x="648.4198" y="513.78711" fill="#d5d500"><tspan x="648.4198" y="513.78711" stroke-width="1.3333">•</tspan></text>
<text x="688.3833" y="513.78711" fill="#8000ff"><tspan x="688.3833" y="513.78711" stroke-width="1.3333">•</tspan></text>
<text x="654.4198" y="513.78711" fill="#d5d500"><tspan x="654.4198" y="513.78711" stroke-width="1.3333">•</tspan></text>
<text x="672.45703" y="513.78711" fill="#ff0000"><tspan x="672.45703" y="513.78711" stroke-width="1.3333">•</tspan></text>
<text x="702.41681" y="513.78711" fill="#00ff00"><tspan x="702.41681" y="513.78711" stroke-width="1.3333">•</tspan></text>
<text x="718.49414" y="540.45312" fill="#ff8000"><tspan x="718.49414" y="540.45312" stroke-width="1.3333">•</tspan></text>
<text x="648.4198" y="540.45312" fill="#d5d500"><tspan x="648.4198" y="540.45312" stroke-width="1.3333">•</tspan></text>
<text x="634.45532" y="540.45312" fill="#ff00ff"><tspan x="634.45532" y="540.45312" stroke-width="1.3333">•</tspan></text>
<text x="654.4198" y="540.45312" fill="#d5d500"><tspan x="654.4198" y="540.45312" stroke-width="1.3333">•</tspan></text>
<text x="672.45703" y="540.45312" fill="#ff0000"><tspan x="672.45703" y="540.45312" stroke-width="1.3333">•</tspan></text>
<text x="702.41681" y="567.11914" fill="#00ff00"><tspan x="702.41681" y="567.11914" stroke-width="1.3333">•</tspan></text>
<text x="688.3833" y="567.11914" fill="#8000ff"><tspan x="688.3833" y="567.11914" stroke-width="1.3333">•</tspan></text>
<text x="648.4198" y="567.11914" fill="#d5d500"><tspan x="648.4198" y="567.11914" stroke-width="1.3333">•</tspan></text>
<text x="672.45703" y="567.11914" fill="#ff0000"><tspan x="672.45703" y="567.11914" stroke-width="1.3333">•</tspan></text>
<text x="654.4198" y="567.11914" fill="#d5d500"><tspan x="654.4198" y="567.11914" stroke-width="1.3333">•</tspan></text>
<text x="634.45532" y="567.11914" fill="#ff00ff"><tspan x="634.45532" y="567.11914" stroke-width="1.3333">•</tspan></text>
</g><g fill="none" stroke="#bfbfbf" stroke-width="1px">
<path d="m90.116 322.9h619.46v270.82h-620.07z"/><path d="m142.2 323.52v268.37l-1.2254 1.2254"/><path d="m330.91 323.52v271.43"/><path d="m528.82 322.9v272.05"/><path d="m89.253 355.99h620.78v3.6763"/><path d="m89.253 386.88h620.78v3.6763"/><path d="m89.253 412.61h620.78v3.6763"/><path d="m89.253 442.02h620.78v3.6763"/><path d="m89.253 471.43h620.78v3.6763"/><path d="m89.253 496.55h620.78v3.6763"/><path d="m89.253 521.06h620.78v3.6763"/><path d="m89.253 548.63h620.78v3.6763"/></g></svg>
