<?xml version="1.0" encoding="UTF-8"?>
<svg width="339.68pt" height="339.68pt" version="1.2" viewBox="0 0 339.68 339.68" xmlns="http://www.w3.org/2000/svg">
 <path d="m-0.24219 339.93h340.17v-340.17h-340.17z" fill="#fff"/>
 <path d="m3.6055 336.08h332.47v-332.47h-332.47z" fill="#fff"/>
 <g fill="#bfbfbf" stroke="#bfbfbf" stroke-dashoffset="8.6929" stroke-linecap="round" stroke-linejoin="round" stroke-width=".56693">
  <path d="m10.109 10.419v106.14h106.45v-106.14zm13.386 16.242h76.118v76.113h-76.118zm16.95 13.784v45.668h45.672v-45.668z" opacity=".5"/>
  <path d="m223.23 10.423v106.14h106.45v-106.14zm13.386 16.242h76.118v76.113h-76.118zm16.95 13.784v45.668h45.672v-45.668z" opacity=".5"/>
  <path d="m223.23 223.54v106.14h106.45v-106.14zm13.386 16.242h76.118v76.113h-76.118zm16.95 13.784v45.668h45.672v-45.668z" opacity=".5"/>
 </g>
 <g transform="rotate(90 308.66 166.69)" fill="#f00">
  <path d="m456.43 160.89h15.223v-15.223h-15.223z"/>
  <path d="m151.97 176.12h15.223v-15.223h-15.223z"/>
  <path d="m319.43 176.12h15.223v-15.223h-15.223z"/>
  <path d="m456.43 176.12h15.223v-15.223h-15.223z"/>
  <path d="m365.1 191.34h15.223v-15.223h-15.223z"/>
  <path d="m425.99 191.34h15.223v-15.223h-15.223z"/>
  <path d="m182.42 206.56h15.227v-15.223h-15.227z"/>
  <path d="m243.31 206.56h15.223v-15.223h-15.223z"/>
  <path d="m197.64 221.79h15.223v-15.227h-15.223z"/>
  <path d="m395.54 221.79h15.223v-15.227h-15.223z"/>
  <path d="m243.31 237.01h15.223v-15.227h-15.223z"/>
  <path d="m273.76 237.01h15.223v-15.227h-15.223z"/>
  <path d="m319.43 237.01h15.223v-15.227h-15.223z"/>
  <path d="m365.1 237.01h15.223v-15.227h-15.223z"/>
  <path d="m243.31 252.23h15.223v-15.223h-15.223z"/>
  <path d="m380.32 252.23h15.223v-15.223h-15.223z"/>
  <path d="m410.77 252.23h15.223v-15.223h-15.223z"/>
  <path d="m425.99 252.23h15.223v-15.223h-15.223z"/>
  <path d="m441.21 252.23h15.223v-15.223h-15.223z"/>
  <path d="m151.97 282.68h15.223v-15.223h-15.223z"/>
  <path d="m288.98 282.68h15.223v-15.223h-15.223z"/>
  <path d="m380.32 282.68h15.223v-15.223h-15.223z"/>
  <path d="m441.21 282.68h15.223v-15.223h-15.223z"/>
  <path d="m395.54 297.9h15.223v-15.223h-15.223z"/>
  <path d="m425.99 297.9h15.223v-15.223h-15.223z"/>
  <path d="m212.87 313.12h15.223v-15.223h-15.223z"/>
  <path d="m304.2 313.12h15.223v-15.223h-15.223z"/>
  <path d="m228.09 328.35h15.223v-15.223h-15.223z"/>
  <path d="m273.76 328.35h15.223v-15.223h-15.223z"/>
  <path d="m288.98 328.35h15.223v-15.223h-15.223z"/>
  <path d="m349.87 328.35h15.227v-15.223h-15.227z"/>
  <path d="m151.97 343.57h15.223v-15.223h-15.223z"/>
  <path d="m243.31 343.57h15.223v-15.223h-15.223z"/>
  <path d="m288.98 343.57h15.223v-15.223h-15.223z"/>
  <path d="m410.77 343.57h15.223v-15.223h-15.223z"/>
  <path d="m334.65 358.79h15.223v-15.223h-15.223z"/>
  <path d="m395.54 358.79h15.223v-15.223h-15.223z"/>
  <path d="m410.77 358.79h15.223v-15.223h-15.223z"/>
  <path d="m456.43 358.79h15.223v-15.223h-15.223z"/>
  <path d="m151.97 374.02h15.223v-15.223h-15.223z"/>
  <path d="m197.64 374.02h15.223v-15.223h-15.223z"/>
  <path d="m228.09 374.02h15.223v-15.223h-15.223z"/>
  <path d="m334.65 374.02h15.223v-15.223h-15.223z"/>
  <path d="m151.97 419.69h15.223v-15.223h-15.223z"/>
  <path d="m182.42 419.69h15.227v-15.223h-15.227z"/>
  <path d="m212.87 419.69h15.223v-15.223h-15.223z"/>
  <path d="m288.98 419.69h15.223v-15.223h-15.223z"/>
  <path d="m395.54 419.69h15.223v-15.223h-15.223z"/>
  <path d="m441.21 419.69h15.223v-15.223h-15.223z"/>
  <path d="m349.87 450.13h15.227v-15.223h-15.227z"/>
  <path d="m167.2 465.36h15.223v-15.223h-15.223z"/>
  <path d="m197.64 465.36h15.223v-15.223h-15.223z"/>
  <path d="m228.09 465.36h15.223v-15.223h-15.223z"/>
  <path d="m273.76 465.36h15.223v-15.223h-15.223z"/>
 </g>
 <g transform="rotate(-90 172.99 308.66)" fill="#007f00">
  <path d="m151.97 160.89h15.223v-15.223h-15.223z"/>
  <path d="m258.54 160.89h15.223v-15.223h-15.223z"/>
  <path d="m197.64 176.12h15.223v-15.223h-15.223z"/>
  <path d="m365.1 176.12h15.223v-15.223h-15.223z"/>
  <path d="m212.87 191.34h15.223v-15.223h-15.223z"/>
  <path d="m243.31 191.34h15.223v-15.223h-15.223z"/>
  <path d="m334.65 191.34h15.223v-15.223h-15.223z"/>
  <path d="m410.77 191.34h15.223v-15.223h-15.223z"/>
  <path d="m304.2 206.56h15.223v-15.223h-15.223z"/>
  <path d="m410.77 206.56h15.223v-15.223h-15.223z"/>
  <path d="m228.09 221.79h15.223v-15.227h-15.223z"/>
  <path d="m273.76 221.79h15.223v-15.227h-15.223z"/>
  <path d="m410.77 221.79h15.223v-15.227h-15.223z"/>
  <path d="m425.99 221.79h15.223v-15.227h-15.223z"/>
  <path d="m228.09 237.01h15.223v-15.227h-15.223z"/>
  <path d="m258.54 237.01h15.223v-15.227h-15.223z"/>
  <path d="m288.98 237.01h15.223v-15.227h-15.223z"/>
  <path d="m334.65 237.01h15.223v-15.227h-15.223z"/>
  <path d="m167.2 252.23h15.223v-15.223h-15.223z"/>
  <path d="m304.2 252.23h15.223v-15.223h-15.223z"/>
  <path d="m365.1 252.23h15.223v-15.223h-15.223z"/>
  <path d="m304.2 267.46h15.223v-15.223h-15.223z"/>
  <path d="m319.43 267.46h15.223v-15.223h-15.223z"/>
  <path d="m258.54 282.68h15.223v-15.223h-15.223z"/>
  <path d="m349.87 282.68h15.227v-15.223h-15.227z"/>
  <path d="m197.64 297.9h15.223v-15.223h-15.223z"/>
  <path d="m228.09 297.9h15.223v-15.223h-15.223z"/>
  <path d="m288.98 297.9h15.223v-15.223h-15.223z"/>
  <path d="m197.64 313.12h15.223v-15.223h-15.223z"/>
  <path d="m243.31 313.12h15.223v-15.223h-15.223z"/>
  <path d="m212.87 343.57h15.223v-15.223h-15.223z"/>
  <path d="m380.32 343.57h15.223v-15.223h-15.223z"/>
  <path d="m425.99 343.57h15.223v-15.223h-15.223z"/>
  <path d="m380.32 374.02h15.223v-15.223h-15.223z"/>
  <path d="m395.54 374.02h15.223v-15.223h-15.223z"/>
  <path d="m151.97 404.46h15.223v-15.223h-15.223z"/>
  <path d="m182.42 404.46h15.227v-15.223h-15.227z"/>
  <path d="m243.31 404.46h15.223v-15.223h-15.223z"/>
  <path d="m319.43 404.46h15.223v-15.223h-15.223z"/>
  <path d="m410.77 419.69h15.223v-15.223h-15.223z"/>
  <path d="m456.43 419.69h15.223v-15.223h-15.223z"/>
  <path d="m212.87 434.91h15.223v-15.223h-15.223z"/>
  <path d="m304.2 434.91h15.223v-15.223h-15.223z"/>
  <path d="m395.54 434.91h15.223v-15.223h-15.223z"/>
  <path d="m304.2 450.13h15.223v-15.223h-15.223z"/>
  <path d="m319.43 450.13h15.223v-15.223h-15.223z"/>
  <path d="m334.65 450.13h15.223v-15.223h-15.223z"/>
  <path d="m334.65 465.36h15.223v-15.223h-15.223z"/>
  <path d="m395.54 465.36h15.223v-15.223h-15.223z"/>
  <path d="m410.77 465.36h15.223v-15.223h-15.223z"/>
 </g>
 <g transform="translate(-141.97 -135.67)" fill="#00f">
  <path d="m182.42 160.89h15.227v-15.223h-15.227z"/>
  <path d="m212.87 160.89h15.223v-15.223h-15.223z"/>
  <path d="m380.32 160.89h15.223v-15.223h-15.223z"/>
  <path d="m304.2 176.12h15.223v-15.223h-15.223z"/>
  <path d="m334.65 176.12h15.223v-15.223h-15.223z"/>
  <path d="m182.42 191.34h15.227v-15.223h-15.227z"/>
  <path d="m395.54 191.34h15.223v-15.223h-15.223z"/>
  <path d="m456.43 191.34h15.223v-15.223h-15.223z"/>
  <path d="m319.43 206.56h15.223v-15.223h-15.223z"/>
  <path d="m425.99 206.56h15.223v-15.223h-15.223z"/>
  <path d="m151.97 221.79h15.223v-15.227h-15.223z"/>
  <path d="m212.87 221.79h15.223v-15.227h-15.223z"/>
  <path d="m182.42 252.23h15.227v-15.223h-15.227z"/>
  <path d="m197.64 252.23h15.223v-15.223h-15.223z"/>
  <path d="m212.87 252.23h15.223v-15.223h-15.223z"/>
  <path d="m228.09 252.23h15.223v-15.223h-15.223z"/>
  <path d="m456.43 252.23h15.223v-15.223h-15.223z"/>
  <path d="m334.65 282.68h15.223v-15.223h-15.223z"/>
  <path d="m365.1 282.68h15.223v-15.223h-15.223z"/>
  <path d="m395.54 282.68h15.223v-15.223h-15.223z"/>
  <path d="m243.31 297.9h15.223v-15.223h-15.223z"/>
  <path d="m380.32 297.9h15.223v-15.223h-15.223z"/>
  <path d="m273.76 313.12h15.223v-15.223h-15.223z"/>
  <path d="m319.43 313.12h15.223v-15.223h-15.223z"/>
  <path d="m334.65 313.12h15.223v-15.223h-15.223z"/>
  <path d="m365.1 313.12h15.223v-15.223h-15.223z"/>
  <path d="m380.32 313.12h15.223v-15.223h-15.223z"/>
  <path d="m410.77 313.12h15.223v-15.223h-15.223z"/>
  <path d="m456.43 313.12h15.223v-15.223h-15.223z"/>
  <path d="m197.64 328.35h15.223v-15.223h-15.223z"/>
  <path d="m410.77 328.35h15.223v-15.223h-15.223z"/>
  <path d="m228.09 343.57h15.223v-15.223h-15.223z"/>
  <path d="m273.76 343.57h15.223v-15.223h-15.223z"/>
  <path d="m319.43 343.57h15.223v-15.223h-15.223z"/>
  <path d="m365.1 343.57h15.223v-15.223h-15.223z"/>
  <path d="m197.64 358.79h15.223v-15.223h-15.223z"/>
  <path d="m243.31 358.79h15.223v-15.223h-15.223z"/>
  <path d="m258.54 358.79h15.223v-15.223h-15.223z"/>
  <path d="m258.54 374.02h15.223v-15.223h-15.223z"/>
  <path d="m365.1 374.02h15.223v-15.223h-15.223z"/>
  <path d="m410.77 374.02h15.223v-15.223h-15.223z"/>
  <path d="m441.21 374.02h15.223v-15.223h-15.223z"/>
  <path d="m273.76 389.24h15.223v-15.223h-15.223z"/>
  <path d="m456.43 389.24h15.223v-15.223h-15.223z"/>
  <path d="m304.2 404.46h15.223v-15.223h-15.223z"/>
  <path d="m410.77 404.46h15.223v-15.223h-15.223z"/>
  <path d="m456.43 404.46h15.223v-15.223h-15.223z"/>
  <path d="m425.99 419.69h15.223v-15.223h-15.223z"/>
  <path d="m197.64 434.91h15.223v-15.223h-15.223z"/>
  <path d="m410.77 434.91h15.223v-15.223h-15.223z"/>
  <path d="m182.42 450.13h15.227v-15.223h-15.227z"/>
  <path d="m273.76 450.13h15.223v-15.223h-15.223z"/>
  <path d="m456.43 450.13h15.223v-15.223h-15.223z"/>
  <path d="m425.99 465.36h15.223v-15.223h-15.223z"/>
 </g>
 <g transform="rotate(180 240.83 237.68)" fill="#ff0">
  <path d="m197.64 160.89h15.223v-15.223h-15.223z"/>
  <path d="m228.09 160.89h15.223v-15.223h-15.223z"/>
  <path d="m243.31 160.89h15.223v-15.223h-15.223z"/>
  <path d="m273.76 160.89h15.223v-15.223h-15.223z"/>
  <path d="m288.98 160.89h15.223v-15.223h-15.223z"/>
  <path d="m304.2 160.89h15.223v-15.223h-15.223z"/>
  <path d="m334.65 160.89h15.223v-15.223h-15.223z"/>
  <path d="m365.1 160.89h15.223v-15.223h-15.223z"/>
  <path d="m395.54 160.89h15.223v-15.223h-15.223z"/>
  <path d="m425.99 160.89h15.223v-15.223h-15.223z"/>
  <path d="m288.98 176.12h15.223v-15.223h-15.223z"/>
  <path d="m380.32 176.12h15.223v-15.223h-15.223z"/>
  <path d="m395.54 176.12h15.223v-15.223h-15.223z"/>
  <path d="m151.97 191.34h15.223v-15.223h-15.223z"/>
  <path d="m349.87 191.34h15.227v-15.223h-15.227z"/>
  <path d="m151.97 206.56h15.223v-15.223h-15.223z"/>
  <path d="m197.64 206.56h15.223v-15.223h-15.223z"/>
  <path d="m212.87 206.56h15.223v-15.223h-15.223z"/>
  <path d="m365.1 206.56h15.223v-15.223h-15.223z"/>
  <path d="m380.32 206.56h15.223v-15.223h-15.223z"/>
  <path d="m395.54 206.56h15.223v-15.223h-15.223z"/>
  <path d="m456.43 206.56h15.223v-15.223h-15.223z"/>
  <path d="m243.31 221.79h15.223v-15.227h-15.223z"/>
  <path d="m365.1 221.79h15.223v-15.227h-15.223z"/>
  <path d="m456.43 221.79h15.223v-15.227h-15.223z"/>
  <path d="m151.97 252.23h15.223v-15.223h-15.223z"/>
  <path d="m273.76 252.23h15.223v-15.223h-15.223z"/>
  <path d="m273.76 267.46h15.223v-15.223h-15.223z"/>
  <path d="m288.98 267.46h15.223v-15.223h-15.223z"/>
  <path d="m182.42 282.68h15.227v-15.223h-15.227z"/>
  <path d="m273.76 282.68h15.223v-15.223h-15.223z"/>
  <path d="m304.2 282.68h15.223v-15.223h-15.223z"/>
  <path d="m410.77 282.68h15.223v-15.223h-15.223z"/>
  <path d="m425.99 282.68h15.223v-15.223h-15.223z"/>
  <path d="m151.97 297.9h15.223v-15.223h-15.223z"/>
  <path d="m212.87 297.9h15.223v-15.223h-15.223z"/>
  <path d="m425.99 313.12h15.223v-15.223h-15.223z"/>
  <path d="m441.21 313.12h15.223v-15.223h-15.223z"/>
  <path d="m395.54 328.35h15.223v-15.223h-15.223z"/>
  <path d="m258.54 343.57h15.223v-15.223h-15.223z"/>
  <path d="m334.65 343.57h15.223v-15.223h-15.223z"/>
  <path d="m349.87 343.57h15.227v-15.223h-15.227z"/>
  <path d="m441.21 343.57h15.223v-15.223h-15.223z"/>
  <path d="m288.98 358.79h15.223v-15.223h-15.223z"/>
  <path d="m167.2 374.02h15.223v-15.223h-15.223z"/>
  <path d="m182.42 374.02h15.227v-15.223h-15.227z"/>
  <path d="m212.87 374.02h15.223v-15.223h-15.223z"/>
  <path d="m273.76 374.02h15.223v-15.223h-15.223z"/>
  <path d="m304.2 374.02h15.223v-15.223h-15.223z"/>
  <path d="m456.43 374.02h15.223v-15.223h-15.223z"/>
  <path d="m151.97 389.24h15.223v-15.223h-15.223z"/>
  <path d="m197.64 404.46h15.223v-15.223h-15.223z"/>
  <path d="m212.87 404.46h15.223v-15.223h-15.223z"/>
  <path d="m334.65 404.46h15.223v-15.223h-15.223z"/>
  <path d="m365.1 404.46h15.223v-15.223h-15.223z"/>
  <path d="m425.99 404.46h15.223v-15.223h-15.223z"/>
  <path d="m243.31 419.69h15.223v-15.223h-15.223z"/>
  <path d="m319.43 419.69h15.223v-15.223h-15.223z"/>
  <path d="m182.42 434.91h15.227v-15.223h-15.227z"/>
  <path d="m243.31 434.91h15.223v-15.223h-15.223z"/>
  <path d="m365.1 434.91h15.223v-15.223h-15.223z"/>
  <path d="m456.43 434.91h15.223v-15.223h-15.223z"/>
  <path d="m151.97 450.13h15.223v-15.223h-15.223z"/>
  <path d="m243.31 450.13h15.223v-15.223h-15.223z"/>
  <path d="m365.1 450.13h15.223v-15.223h-15.223z"/>
  <path d="m151.97 465.36h15.223v-15.223h-15.223z"/>
  <path d="m182.42 465.36h15.227v-15.223h-15.227z"/>
  <path d="m212.87 465.36h15.223v-15.223h-15.223z"/>
  <path d="m243.31 465.36h15.223v-15.223h-15.223z"/>
  <path d="m288.98 465.36h15.223v-15.223h-15.223z"/>
  <path d="m319.43 465.36h15.223v-15.223h-15.223z"/>
  <path d="m380.32 465.36h15.223v-15.223h-15.223z"/>
  <path d="m441.21 465.36h15.223v-15.223h-15.223z"/>
  <path d="m456.43 465.36h15.223v-15.223h-15.223z"/>
 </g>
</svg>
